<svg id="visual" viewBox="0 0 960 540" width="960" height="540" xmlns="http://www.w3.org/2000/svg" xmlns:xlink="http://www.w3.org/1999/xlink" version="1.1"><path d="M0 446L26.7 449.2C53.3 452.3 106.7 458.7 160 453.8C213.3 449 266.7 433 320 420C373.3 407 426.7 397 480 402.3C533.3 407.7 586.7 428.3 640 431.2C693.3 434 746.7 419 800 414.5C853.3 410 906.7 416 933.3 419L960 422L960 541L933.3 541C906.7 541 853.3 541 800 541C746.7 541 693.3 541 640 541C586.7 541 533.3 541 480 541C426.7 541 373.3 541 320 541C266.7 541 213.3 541 160 541C106.7 541 53.3 541 26.7 541L0 541Z" fill="#4797ff" stroke-linecap="round" stroke-linejoin="miter"></path></svg>